<svg width="70" height="70" viewBox="0 0 70 70" fill="none" xmlns="http://www.w3.org/2000/svg">
<path d="M27.7083 30.625H35C35.7736 30.625 36.5154 30.3177 37.0624 29.7707C37.6094 29.2238 37.9167 28.4819 37.9167 27.7084C37.9167 26.9348 37.6094 26.1929 37.0624 25.646C36.5154 25.099 35.7736 24.7917 35 24.7917H32.0833V23.3334C32.0833 22.5598 31.776 21.8179 31.2291 21.271C30.6821 20.724 29.9402 20.4167 29.1667 20.4167C28.3931 20.4167 27.6513 20.724 27.1043 21.271C26.5573 21.8179 26.25 22.5598 26.25 23.3334V24.9375C24.4779 25.2974 22.9027 26.3028 21.8303 27.7587C20.7578 29.2146 20.2645 31.0171 20.4463 32.8162C20.628 34.6153 21.4717 36.2827 22.8137 37.4947C24.1556 38.7067 25.9001 39.3768 27.7083 39.375H30.625C31.0118 39.375 31.3827 39.5287 31.6562 39.8022C31.9297 40.0756 32.0833 40.4466 32.0833 40.8334C32.0833 41.2201 31.9297 41.5911 31.6562 41.8646C31.3827 42.138 31.0118 42.2917 30.625 42.2917H23.3333C22.5598 42.2917 21.8179 42.599 21.2709 43.146C20.724 43.6929 20.4167 44.4348 20.4167 45.2084C20.4167 45.9819 20.724 46.7238 21.2709 47.2708C21.8179 47.8177 22.5598 48.125 23.3333 48.125H26.25V49.5834C26.25 50.3569 26.5573 51.0988 27.1043 51.6458C27.6513 52.1927 28.3931 52.5 29.1667 52.5C29.9402 52.5 30.6821 52.1927 31.2291 51.6458C31.776 51.0988 32.0833 50.3569 32.0833 49.5834V47.9792C33.8554 47.6194 35.4306 46.6139 36.5031 45.158C37.5756 43.7021 38.0688 41.8997 37.8871 40.1005C37.7054 38.3014 36.8616 36.634 35.5197 35.422C34.1777 34.21 32.4333 33.5399 30.625 33.5417H27.7083C27.3216 33.5417 26.9506 33.388 26.6771 33.1146C26.4036 32.8411 26.25 32.4701 26.25 32.0834C26.25 31.6966 26.4036 31.3256 26.6771 31.0522C26.9506 30.7787 27.3216 30.625 27.7083 30.625ZM61.25 35H52.5V8.75002C52.502 8.23608 52.3682 7.73072 52.1121 7.28511C51.8561 6.83951 51.4868 6.46949 51.0417 6.21252C50.5983 5.95653 50.0953 5.82176 49.5833 5.82176C49.0714 5.82176 48.5684 5.95653 48.125 6.21252L39.375 11.2292L30.625 6.21252C30.1816 5.95653 29.6787 5.82176 29.1667 5.82176C28.6547 5.82176 28.1517 5.95653 27.7083 6.21252L18.9583 11.2292L10.2083 6.21252C9.76495 5.95653 9.26198 5.82176 8.75 5.82176C8.23802 5.82176 7.73506 5.95653 7.29167 6.21252C6.84657 6.46949 6.47728 6.83951 6.22119 7.28511C5.9651 7.73072 5.8313 8.23608 5.83334 8.75002V55.4167C5.83334 57.7373 6.75521 59.9629 8.39615 61.6039C10.0371 63.2448 12.2627 64.1667 14.5833 64.1667H55.4167C57.7373 64.1667 59.9629 63.2448 61.6039 61.6039C63.2448 59.9629 64.1667 57.7373 64.1667 55.4167V37.9167C64.1667 37.1431 63.8594 36.4013 63.3124 35.8543C62.7654 35.3073 62.0236 35 61.25 35ZM14.5833 58.3334C13.8098 58.3334 13.0679 58.0261 12.5209 57.4791C11.974 56.9321 11.6667 56.1902 11.6667 55.4167V13.7959L17.5 17.1209C17.9502 17.356 18.4505 17.4788 18.9583 17.4788C19.4662 17.4788 19.9665 17.356 20.4167 17.1209L29.1667 12.1042L37.9167 17.1209C38.3668 17.356 38.8671 17.4788 39.375 17.4788C39.8829 17.4788 40.3832 17.356 40.8333 17.1209L46.6667 13.7959V55.4167C46.6746 56.4117 46.8521 57.3981 47.1917 58.3334H14.5833ZM58.3333 55.4167C58.3333 56.1902 58.026 56.9321 57.4791 57.4791C56.9321 58.0261 56.1902 58.3334 55.4167 58.3334C54.6431 58.3334 53.9013 58.0261 53.3543 57.4791C52.8073 56.9321 52.5 56.1902 52.5 55.4167V40.8334H58.3333V55.4167Z" fill="white"/>
</svg>
