<svg width="360" height="468" viewBox="0 0 360 468" fill="none" xmlns="http://www.w3.org/2000/svg">
<g id="box">
<rect id="Rectangle 3" x="32.6992" y="175.756" width="286.113" height="286.113" fill="#561A00"/>
<g id="lid">
<rect id="Rectangle 4" x="65.0508" y="5.10939" width="310.637" height="30.655" rx="15" transform="rotate(30 65.0508 5.10939)" fill="#341000"/>
</g>
<g id="Group 4">
<path id="Vector 3" d="M47.0057 198.236L167.582 319.63L47.0057 445.52C58.9145 417.794 87.1978 353.989 87.1978 319.63C87.1978 283.661 61.8917 224.463 47.0057 198.236Z" fill="#672305"/>
<path id="Vector 5" d="M308.596 439.389L188.02 317.995L308.596 192.105C296.687 219.831 268.404 283.636 268.404 317.995C268.404 353.963 293.71 413.162 308.596 439.389Z" fill="#672305"/>
<path id="Vector 6" d="M55.1797 449.607L176.574 329.031L302.463 449.607C274.738 437.698 210.932 409.415 176.574 409.415C140.605 409.415 81.4067 434.721 55.1797 449.607Z" fill="#672305"/>
<path id="Vector 4" d="M298.375 185.974L176.981 306.55L51.0913 185.974C78.8171 197.883 142.622 226.166 176.981 226.166C212.95 226.166 272.148 200.86 298.375 185.974Z" fill="#672305"/>
</g>
<g id="green">
<rect id="Rectangle 11" x="49.0469" y="286.114" width="63.3537" height="28.6113" rx="4" fill="#A5CF4F"/>
<circle id="Ellipse 27" cx="63.3531" cy="300.419" r="10.2183" fill="#65802F"/>
<g id="Group 3">
<g id="Rectangle 12">
<rect x="81.7461" y="290.201" width="24.524" height="2.04367" fill="#65802F"/>
<rect x="81.7461" y="290.201" width="24.524" height="2.04367" fill="#65802F"/>
</g>
<g id="Rectangle 13">
<rect x="81.7461" y="306.55" width="24.524" height="2.04367" fill="#65802F"/>
<rect x="81.7461" y="306.55" width="24.524" height="2.04367" fill="#65802F"/>
</g>
<g id="Rectangle 14">
<rect x="81.7461" y="298.376" width="24.524" height="2.04367" fill="#65802F"/>
<rect x="81.7461" y="298.376" width="24.524" height="2.04367" fill="#65802F"/>
</g>
</g>
</g>
<g id="glass">
<g id="fa-solid:glass-martini-alt" clip-path="url(#clip0)">
<path id="Vector" d="M256.983 305.452C258.086 304.349 257.305 302.463 255.745 302.463H232.685C231.126 302.463 230.345 304.349 231.448 305.452L242.555 316.558V326.54H239.649C238.503 326.54 237.573 327.469 237.573 328.616C237.573 328.845 237.759 329.031 237.989 329.031H250.442C250.671 329.031 250.857 328.845 250.857 328.616C250.857 327.469 249.928 326.54 248.782 326.54H245.876V316.558L256.983 305.452ZM253.959 304.954L251.468 307.444H236.963L234.472 304.954H253.959Z" fill="#E5E5E5"/>
</g>
<g id="Rectangle 10">
<rect x="224.801" y="335.162" width="36.786" height="2.04367" rx="1.02183" transform="rotate(-90 224.801 335.162)" fill="#E23B30"/>
<rect x="224.801" y="335.162" width="36.786" height="2.04367" rx="1.02183" transform="rotate(-90 224.801 335.162)" fill="#E23B30"/>
</g>
<g id="Rectangle 11_2">
<rect x="261.588" y="335.162" width="36.786" height="2.04367" rx="1.02183" transform="rotate(-90 261.588 335.162)" fill="#E23B30"/>
<rect x="261.588" y="335.162" width="36.786" height="2.04367" rx="1.02183" transform="rotate(-90 261.588 335.162)" fill="#E23B30"/>
</g>
<g id="Rectangle 13_2">
<rect x="224.801" y="298.376" width="38.8297" height="2.04367" rx="1.02183" fill="#E23B30"/>
<rect x="224.801" y="298.376" width="38.8297" height="2.04367" rx="1.02183" fill="#E23B30"/>
</g>
<g id="Rectangle 12_2">
<rect x="224.801" y="333.118" width="38.8297" height="2.04367" rx="1.02183" fill="#E23B30"/>
<rect x="224.801" y="333.118" width="38.8297" height="2.04367" rx="1.02183" fill="#E23B30"/>
</g>
</g>
<g id="orange">
<path id="Star 2" d="M106.271 326.987L112.236 346.051H131.538L115.922 357.833L121.887 376.897L106.271 365.115L90.6547 376.897L96.6195 357.833L81.0034 346.051H100.306L106.271 326.987Z" fill="#E26630"/>
<path id="Star 1" d="M107.292 329.031L113.027 346.682H131.587L116.572 357.592L122.307 375.243L107.292 364.334L92.2765 375.243L98.0119 357.592L82.9964 346.682H101.557L107.292 329.031Z" fill="#EF8354"/>
<circle id="Ellipse 28" cx="107.293" cy="354.576" r="7.15283" fill="#E26630"/>
<circle id="Ellipse 29" cx="95.0284" cy="350.489" r="3.0655" fill="#E26630"/>
<circle id="Ellipse 30" cx="119.554" cy="350.489" r="3.0655" fill="#E26630"/>
</g>
<g id="blue">
<g id="Vector_2">
<path d="M155.32 441.432H130.561V420.996H155.32V441.432Z" fill="#32A3AA"/>
<path d="M124.665 424.711L130.561 420.996V441.432L124.665 437.717V424.711Z" fill="#32A3AA"/>
</g>
<g id="Vector_3">
<path d="M154.297 439.389H132.013V420.996H154.297V439.389Z" fill="#A4D5D8"/>
<path d="M126.707 424.34L132.013 420.996V439.389L126.707 436.044V424.34Z" fill="#A4D5D8"/>
</g>
<g id="whh:fonthandwriting" clip-path="url(#clip1)">
<path id="Vector_4" d="M146.049 426.999C145.464 426.999 144.32 427.179 142.617 427.538C142.472 428.855 142.278 430.185 142.035 431.529C141.792 432.873 141.548 433.811 141.305 434.343C141.191 434.583 141.024 434.802 140.803 435.002C140.583 435.202 140.385 435.301 140.21 435.301C140.127 435.301 140.056 435.261 139.999 435.182C139.942 435.102 139.904 434.985 139.885 434.832C139.866 434.679 139.855 434.55 139.851 434.443C139.847 434.337 139.845 434.197 139.845 434.024C139.845 433.745 139.876 433.292 139.937 432.667C139.997 432.042 140.089 431.207 140.21 430.162C140.332 429.118 140.416 428.393 140.461 427.987C139.42 428.18 138.606 428.276 138.021 428.276C137.709 428.276 137.448 428.14 137.239 427.867C137.03 427.594 136.926 427.315 136.926 427.029C136.926 426.789 137.021 426.618 137.211 426.515C137.401 426.412 137.671 426.36 138.021 426.36C138.553 426.36 139.42 426.284 140.621 426.131V426.041V426.121H140.644C140.697 425.828 140.784 425.582 140.906 425.382C141.028 425.183 141.172 425.083 141.339 425.083C142.297 425.083 142.772 425.296 142.765 425.722V425.861C144.255 425.695 145.384 425.678 146.152 425.811C146.304 425.838 146.412 425.858 146.477 425.871C146.542 425.885 146.627 425.908 146.734 425.941C146.84 425.974 146.916 426.008 146.962 426.041C147.007 426.074 147.049 426.122 147.087 426.186C147.125 426.249 147.144 426.32 147.144 426.4C147.144 426.606 147.04 426.758 146.83 426.854C146.621 426.951 146.361 426.999 146.049 426.999Z" fill="black"/>
</g>
</g>
<g id="white">
<rect id="Rectangle 15" x="126.707" y="198.236" width="106.271" height="42.917" rx="5" fill="#E5E5E5"/>
<g id="Group 3_2">
<g id="Rectangle 12_3">
<rect x="145.098" y="208.454" width="69.4847" height="1.49869" fill="#65802F"/>
<rect x="145.098" y="208.454" width="69.4847" height="1.49869" fill="#2D3142"/>
</g>
<g id="Rectangle 13_3">
<rect x="145.098" y="229.436" width="69.4847" height="1.49869" fill="#65802F"/>
<rect x="145.098" y="229.436" width="69.4847" height="1.49869" fill="#2D3142"/>
</g>
<g id="Rectangle 14_2">
<rect x="145.098" y="218.945" width="69.4847" height="1.49869" fill="#65802F"/>
<rect x="145.098" y="218.945" width="69.4847" height="1.49869" fill="#2D3142"/>
</g>
</g>
</g>
<g id="dark">
<g id="Rectangle 5">
<rect x="318.812" y="468" width="306.55" height="12.262" rx="6.131" transform="rotate(-90 318.812 468)" fill="#341000"/>
<rect x="318.812" y="468" width="306.55" height="12.262" rx="6.131" transform="rotate(-90 318.812 468)" fill="#341000"/>
</g>
<g id="Rectangle 8">
<rect x="26.5684" y="458.643" width="419.048" height="12.262" rx="6.131" transform="rotate(-45 26.5684 458.643)" fill="#341000"/>
<rect x="26.5684" y="458.643" width="419.048" height="12.262" rx="6.131" transform="rotate(-45 26.5684 458.643)" fill="#341000"/>
</g>
<g id="Rectangle 9">
<rect x="29.1035" y="161.45" width="419.048" height="12.262" rx="6.131" transform="rotate(45 29.1035 161.45)" fill="#341000"/>
<rect x="29.1035" y="161.45" width="419.048" height="12.262" rx="6.131" transform="rotate(45 29.1035 161.45)" fill="#341000"/>
</g>
<g id="Rectangle 7">
<rect x="20.4375" y="468" width="306.55" height="12.262" rx="6.131" transform="rotate(-90 20.4375 468)" fill="#341000"/>
<rect x="20.4375" y="468" width="306.55" height="12.262" rx="6.131" transform="rotate(-90 20.4375 468)" fill="#341000"/>
</g>
<g id="Rectangle 6">
<rect x="22.4785" y="455.738" width="306.55" height="12.262" rx="6.131" fill="#341000"/>
<rect x="22.4785" y="455.738" width="306.55" height="12.262" rx="6.131" fill="#341000"/>
</g>
</g>
<line id="Line 1" y1="467.5" x2="359.685" y2="467.5" stroke="#EF8354"/>
</g>
<defs>
<clipPath id="clip0">
<rect width="26.5677" height="26.5677" fill="white" transform="translate(230.932 302.463)"/>
</clipPath>
<clipPath id="clip1">
<rect width="10.2183" height="10.2183" fill="white" transform="translate(136.926 425.083)"/>
</clipPath>
</defs>
</svg>
