<svg width="70" height="70" viewBox="0 0 70 70" fill="none" xmlns="http://www.w3.org/2000/svg">
<path d="M60.5847 29.6217L56.5947 17.6488C56.0159 15.906 54.9026 14.39 53.4129 13.3161C51.9233 12.2422 50.1331 11.665 48.2968 11.6667H21.7026C19.8662 11.665 18.0761 12.2422 16.5864 13.3161C15.0968 14.39 13.9835 15.906 13.4047 17.6488L9.41467 29.6217C8.35479 30.0664 7.44965 30.8139 6.81256 31.7706C6.17546 32.7272 5.83473 33.8506 5.83301 35V49.5833C5.83301 51.7796 7.06676 53.6725 8.86342 54.6671C8.82551 54.8596 8.74967 55.0346 8.74967 55.2358V61.25C8.74967 62.0236 9.05697 62.7654 9.60395 63.3124C10.1509 63.8594 10.8928 64.1667 11.6663 64.1667H14.583C15.3566 64.1667 16.0984 63.8594 16.6454 63.3124C17.1924 62.7654 17.4997 62.0236 17.4997 61.25V55.4167H52.4997V61.25C52.4997 62.0236 52.807 62.7654 53.3539 63.3124C53.9009 63.8594 54.6428 64.1667 55.4163 64.1667H58.333C59.1066 64.1667 59.8484 63.8594 60.3954 63.3124C60.9424 62.7654 61.2497 62.0236 61.2497 61.25V55.2358C61.2497 55.0346 61.1738 54.8567 61.1359 54.6671C62.05 54.1687 62.8135 53.434 63.3466 52.5398C63.8797 51.6455 64.1628 50.6244 64.1663 49.5833V35C64.1663 32.5821 62.6847 30.5054 60.5847 29.6217ZM11.6663 49.5833V35H58.333L58.3388 49.5833H11.6663ZM21.7026 17.5H48.2938C49.5509 17.5 50.6651 18.2992 51.0618 19.495L54.2876 29.1667H15.7118L18.9347 19.495C19.1282 18.914 19.4997 18.4086 19.9965 18.0506C20.4933 17.6925 21.0902 17.4999 21.7026 17.5V17.5Z" fill="white"/>
<path d="M18.958 46.6667C21.3743 46.6667 23.333 44.7079 23.333 42.2917C23.333 39.8754 21.3743 37.9167 18.958 37.9167C16.5418 37.9167 14.583 39.8754 14.583 42.2917C14.583 44.7079 16.5418 46.6667 18.958 46.6667Z" fill="white"/>
<path d="M51.042 46.6667C53.4582 46.6667 55.417 44.7079 55.417 42.2917C55.417 39.8754 53.4582 37.9167 51.042 37.9167C48.6257 37.9167 46.667 39.8754 46.667 42.2917C46.667 44.7079 48.6257 46.6667 51.042 46.6667Z" fill="white"/>
</svg>
