<svg width="97" height="213" viewBox="0 0 97 213" fill="none" xmlns="http://www.w3.org/2000/svg">
<g id="flowerpot">
<g id="pot">
<rect id="Rectangle 1" x="9" y="149" width="80" height="63" rx="15" fill="#561A00"/>
<rect id="Rectangle 2" y="149" width="97" height="19" rx="9.5" fill="#561A00"/>
<line id="Line 1" x1="11" y1="212.5" x2="86" y2="212.5" stroke="#EF8354"/>
</g>
<g id="stem">
<rect id="stem-light" x="47" y="17" width="4" height="132" fill="#A5CF4F"/>
<path id="stem-dark" d="M51 149H47V132C49.8 128.8 50.8333 122.667 51 120V149Z" fill="#65802F"/>
</g>
<g id="leaves">
<g id="leaf">
<g id="leaf-light">
<path d="M70.7767 113.988C70.355 117.274 67.3486 119.597 64.0619 119.175C60.7751 118.753 58.4525 115.747 58.8743 112.46C59.296 109.174 62.3023 106.851 65.5891 107.273C68.8759 107.694 71.1984 110.701 70.7767 113.988Z" fill="#A5CF4F"/>
<path d="M54.0159 118.894C56.4683 112.353 59.981 109.074 61.4307 108.251L68.7798 117.764C65.9921 120.633 57.7757 119.713 54.0159 118.894Z" fill="#A5CF4F"/>
</g>
<path id="Vector 1" d="M63.4649 112.041C63.0682 111.99 57.3733 116.3 54.5755 118.462C61.8293 115.36 64.3888 114.008 64.7618 113.72C64.4949 113.181 63.8617 112.092 63.4649 112.041Z" fill="#65802F"/>
</g>
<g id="leaf_2">
<g id="leaf-light_2">
<path d="M70.0001 71C70.0001 74.3137 67.3138 77 64.0001 77C60.6864 77 58.0001 74.3137 58.0001 71C58.0001 67.6863 60.6864 65 64.0001 65C67.3138 65 70.0001 67.6863 70.0001 71Z" fill="#A5CF4F"/>
<path d="M54.0001 78C55.6001 71.2 58.6667 67.5 60.0001 66.5L68.5001 75C66.1001 78.2 57.8334 78.3333 54.0001 78Z" fill="#A5CF4F"/>
</g>
<path id="Vector 1_2" d="M62.5001 70C62.1001 70 57.0001 75 54.5001 77.5C61.3001 73.5 63.6667 71.8333 64.0001 71.5C63.6667 71 62.9001 70 62.5001 70Z" fill="#65802F"/>
</g>
<g id="leaf_3">
<g id="leaf-light_3">
<path d="M28.0001 99C28.0001 102.314 30.6864 105 34.0001 105C37.3138 105 40.0001 102.314 40.0001 99C40.0001 95.6863 37.3138 93 34.0001 93C30.6864 93 28.0001 95.6863 28.0001 99Z" fill="#A5CF4F"/>
<path d="M44.0001 106C42.4001 99.2 39.3334 95.5 38.0001 94.5L29.5001 103C31.9001 106.2 40.1667 106.333 44.0001 106Z" fill="#A5CF4F"/>
</g>
<path id="Vector 1_3" d="M35.5001 98C35.9001 98 41.0001 103 43.5001 105.5C36.7001 101.5 34.3334 99.8333 34.0001 99.5C34.3334 99 35.1001 98 35.5001 98Z" fill="#65802F"/>
</g>
<g id="leaf_4">
<g id="leaf-light_4">
<path d="M27.0397 135.682C27.6139 138.945 30.725 141.125 33.9886 140.551C37.2521 139.977 39.4323 136.866 38.8582 133.602C38.284 130.339 35.1729 128.159 31.9093 128.733C28.6457 129.307 26.4655 132.418 27.0397 135.682Z" fill="#A5CF4F"/>
<path d="M44.0106 139.803C41.2565 133.383 37.5951 130.271 36.1087 129.517L29.2101 139.361C32.1282 142.097 40.293 140.796 44.0106 139.803Z" fill="#A5CF4F"/>
</g>
<path id="Vector 1_4" d="M34.253 133.397C34.6469 133.328 40.5361 137.369 43.4315 139.398C36.0413 136.636 33.4216 135.405 33.0356 135.134C33.2772 134.584 33.859 133.466 34.253 133.397Z" fill="#65802F"/>
</g>
</g>
<g id="petals">
<g id="Vector">
<path d="M41.6364 23.6364C41.6364 30.1634 36.3452 35.4545 29.8182 35.4545C23.2912 35.4545 18 30.1634 18 23.6364C18 17.1094 23.2912 11.8182 29.8182 11.8182C36.3452 11.8182 41.6364 17.1094 41.6364 23.6364Z" fill="#E26630"/>
<path d="M65.2727 31.3182C65.2727 40.1296 58.1296 47.2727 49.3182 47.2727C40.5067 47.2727 33.3636 40.1296 33.3636 31.3182C33.3636 22.5067 40.5067 15.3636 49.3182 15.3636C58.1296 15.3636 65.2727 22.5067 65.2727 31.3182Z" fill="#E26630"/>
<path d="M59.3636 11.8182C59.3636 18.3452 54.0724 23.6364 47.5454 23.6364C41.0184 23.6364 35.7273 18.3452 35.7273 11.8182C35.7273 5.29118 41.0184 0 47.5454 0C54.0724 0 59.3636 5.29118 59.3636 11.8182Z" fill="#E26630"/>
<path d="M47.5455 44.9091C47.5455 51.4361 42.2543 56.7273 35.7273 56.7273C29.2003 56.7273 23.9091 51.4361 23.9091 44.9091C23.9091 38.3821 29.2003 33.0909 35.7273 33.0909C42.2543 33.0909 47.5455 38.3821 47.5455 44.9091Z" fill="#E26630"/>
<path d="M70 47.2727C70 53.7997 64.7088 59.0909 58.1818 59.0909C51.6548 59.0909 46.3636 53.7997 46.3636 47.2727C46.3636 40.7457 51.6548 35.4545 58.1818 35.4545C64.7088 35.4545 70 40.7457 70 47.2727Z" fill="#E26630"/>
<path d="M83 33.0909C83 39.6179 77.7088 44.9091 71.1818 44.9091C64.6548 44.9091 59.3636 39.6179 59.3636 33.0909C59.3636 26.5639 64.6548 21.2727 71.1818 21.2727C77.7088 21.2727 83 26.5639 83 33.0909Z" fill="#E26630"/>
<path d="M79.4545 14.1818C79.4545 20.7088 74.1634 26 67.6364 26C61.1094 26 55.8182 20.7088 55.8182 14.1818C55.8182 7.65481 61.1094 2.36363 67.6364 2.36363C74.1634 2.36363 79.4545 7.65481 79.4545 14.1818Z" fill="#E26630"/>
</g>
<g id="flower">
<circle id="Ellipse 1" cx="26.8182" cy="25.6364" r="11.8182" fill="#EF8354"/>
<circle id="Ellipse 7" cx="46.3182" cy="33.3182" r="15.9545" fill="#EF8354"/>
<circle id="Ellipse 2" cx="44.5454" cy="13.8182" r="11.8182" fill="#EF8354"/>
<circle id="Ellipse 3" cx="32.7273" cy="46.9091" r="11.8182" fill="#EF8354"/>
<circle id="Ellipse 4" cx="55.1818" cy="49.2727" r="11.8182" fill="#EF8354"/>
<circle id="Ellipse 5" cx="68.1818" cy="35.0909" r="11.8182" fill="#EF8354"/>
<circle id="Ellipse 6" cx="64.6364" cy="16.1818" r="11.8182" fill="#EF8354"/>
<circle id="Ellipse 26" cx="46" cy="30" r="10" fill="#E26630"/>
</g>
<g id="dots">
<circle id="Ellipse 12" cx="49" cy="32" r="1" fill="black"/>
<circle id="Ellipse 13" cx="48" cy="37" r="1" fill="black"/>
<circle id="Ellipse 14" cx="42" cy="31" r="1" fill="black"/>
<circle id="Ellipse 15" cx="42" cy="27" r="1" fill="black"/>
<circle id="Ellipse 16" cx="55" cy="31" r="1" fill="black"/>
<circle id="Ellipse 17" cx="51.5" cy="31.5" r="0.5" fill="black"/>
<circle id="Ellipse 18" cx="48.5" cy="27.5" r="0.5" fill="black"/>
<circle id="Ellipse 19" cx="44.5" cy="28.5" r="0.5" fill="black"/>
<circle id="Ellipse 20" cx="39.5" cy="29.5" r="0.5" fill="black"/>
<circle id="Ellipse 21" cx="41.5" cy="21.5" r="0.5" fill="black"/>
<circle id="Ellipse 22" cx="43.5" cy="34.5" r="0.5" fill="black"/>
<circle id="Ellipse 23" cx="50.5" cy="38.5" r="0.5" fill="black"/>
<circle id="Ellipse 24" cx="50.5" cy="34.5" r="0.5" fill="black"/>
<circle id="Ellipse 25" cx="54.5" cy="26.5" r="0.5" fill="black"/>
<circle id="Ellipse 8" cx="46.5" cy="29.5" r="1.5" fill="black"/>
<circle id="Ellipse 9" cx="51.5" cy="27.5" r="1.5" fill="black"/>
<circle id="Ellipse 10" cx="44.5" cy="38.5" r="1.5" fill="black"/>
<circle id="Ellipse 11" cx="45.5" cy="24.5" r="1.5" fill="black"/>
</g>
</g>
<path id="Vector 2" d="M53.6991 168.006H89V185.5C87.4752 171.776 65.6961 168.17 53.6991 168.006H52C52.5402 167.998 53.1077 167.998 53.6991 168.006Z" fill="#341000"/>
</g>
</svg>
