<svg width="127" height="127" viewBox="0 0 127 127" fill="none" xmlns="http://www.w3.org/2000/svg">
<path d="M63.4453 29.0791L95.168 52.8711V100.455H31.7227V52.8711L63.4453 29.0791ZM63.4453 15.8613L21.1484 47.584V111.029H105.742V47.584L63.4453 15.8613ZM60.8018 50.2275V66.0889H58.1582V50.2275H52.8711V66.0889H50.2275V50.2275H44.9404V66.0889C44.9404 70.4772 48.4828 74.0195 52.8711 74.0195V95.168H58.1582V74.0195C62.5465 74.0195 66.0889 70.4772 66.0889 66.0889V50.2275H60.8018ZM68.7324 60.8018V76.6631H74.0195V95.168H79.3066V50.2275C73.4908 50.2275 68.7324 54.9859 68.7324 60.8018Z" fill="white"/>
</svg>
