<svg width="70" height="70" viewBox="0 0 70 70" fill="none" xmlns="http://www.w3.org/2000/svg">
<path d="M60.1562 21.1914H50.0664C50.9961 19.7285 51.543 17.9922 51.543 16.1328C51.543 10.9307 47.3115 6.69922 42.1094 6.69922C39.2793 6.69922 36.7295 7.95703 35 9.93945C33.2705 7.95703 30.7207 6.69922 27.8906 6.69922C22.6885 6.69922 18.457 10.9307 18.457 16.1328C18.457 17.9922 18.9971 19.7285 19.9336 21.1914H9.84375C8.63379 21.1914 7.65625 22.1689 7.65625 23.3789V37.0508C7.65625 37.3516 7.90234 37.5977 8.20312 37.5977H10.9375V61.1133C10.9375 62.3232 11.915 63.3008 13.125 63.3008H56.875C58.085 63.3008 59.0625 62.3232 59.0625 61.1133V37.5977H61.7969C62.0977 37.5977 62.3438 37.3516 62.3438 37.0508V23.3789C62.3438 22.1689 61.3662 21.1914 60.1562 21.1914ZM37.3242 16.1328C37.3242 13.4941 39.4707 11.3477 42.1094 11.3477C44.748 11.3477 46.8945 13.4941 46.8945 16.1328C46.8945 18.7715 44.748 20.918 42.1094 20.918H37.3242V16.1328ZM27.8906 11.3477C30.5293 11.3477 32.6758 13.4941 32.6758 16.1328V20.918H27.8906C25.252 20.918 23.1055 18.7715 23.1055 16.1328C23.1055 13.4941 25.252 11.3477 27.8906 11.3477ZM12.3047 32.9492V25.8398H32.6758V32.9492H12.3047ZM15.5859 37.5977H32.6758V58.6523H15.5859V37.5977ZM54.4141 58.6523H37.3242V37.5977H54.4141V58.6523ZM57.6953 32.9492H37.3242V25.8398H57.6953V32.9492Z" fill="white"/>
</svg>
