<svg width="60" height="60" viewBox="0 0 60 60" fill="none" xmlns="http://www.w3.org/2000/svg">
<path d="M31.3275 4.29753C31.1533 4.12291 30.9464 3.98438 30.7186 3.88985C30.4908 3.79533 30.2466 3.74667 30 3.74667C29.7534 3.74667 29.5092 3.79533 29.2814 3.88985C29.0536 3.98438 28.8467 4.12291 28.6725 4.29753L6.1725 26.7975C5.9985 26.972 5.86058 27.179 5.76663 27.4068C5.67269 27.6346 5.62456 27.8786 5.625 28.125V54.375C5.625 54.8723 5.82255 55.3492 6.17418 55.7009C6.52581 56.0525 7.00272 56.25 7.5 56.25H24.375C24.8723 56.25 25.3492 56.0525 25.7008 55.7009C26.0525 55.3492 26.25 54.8723 26.25 54.375V39.375H33.75V54.375C33.75 54.8723 33.9475 55.3492 34.2992 55.7009C34.6508 56.0525 35.1277 56.25 35.625 56.25H52.5C52.9973 56.25 53.4742 56.0525 53.8258 55.7009C54.1775 55.3492 54.375 54.8723 54.375 54.375V28.125C54.3754 27.8786 54.3273 27.6346 54.2334 27.4068C54.1394 27.179 54.0015 26.972 53.8275 26.7975L48.75 21.7238V9.37503C48.75 8.87775 48.5525 8.40083 48.2008 8.0492C47.8492 7.69757 47.3723 7.50003 46.875 7.50003H43.125C42.6277 7.50003 42.1508 7.69757 41.7992 8.0492C41.4475 8.40083 41.25 8.87775 41.25 9.37503V14.2238L31.3275 4.29753ZM9.375 52.5V28.9013L30 8.27628L50.625 28.9013V52.5H37.5V37.5C37.5 37.0027 37.3025 36.5258 36.9508 36.1742C36.5992 35.8226 36.1223 35.625 35.625 35.625H24.375C23.8777 35.625 23.4008 35.8226 23.0492 36.1742C22.6975 36.5258 22.5 37.0027 22.5 37.5V52.5H9.375Z" fill="white"/>
</svg>
