<svg width="70" height="70" viewBox="0 0 70 70" fill="none" xmlns="http://www.w3.org/2000/svg">
<path d="M11.6673 35C11.6673 28.8116 14.1256 22.8767 18.5015 18.5008C22.8773 14.125 28.8123 11.6667 35.0007 11.6667C41.189 11.6667 47.124 14.125 51.4998 18.5008C55.8757 22.8767 58.334 28.8116 58.334 35C58.334 41.1884 55.8757 47.1233 51.4998 51.4992C47.124 55.875 41.189 58.3333 35.0007 58.3333C28.8123 58.3333 22.8773 55.875 18.5015 51.4992C14.1256 47.1233 11.6673 41.1884 11.6673 35V35ZM35.0007 5.83334C18.8919 5.83334 5.83398 18.8913 5.83398 35C5.83398 51.1088 18.8919 64.1667 35.0007 64.1667C51.1094 64.1667 64.1673 51.1088 64.1673 35C64.1673 18.8913 51.1094 5.83334 35.0007 5.83334ZM35.0007 29.1667C33.4536 29.1667 31.9698 29.7813 30.8759 30.8752C29.7819 31.9692 29.1673 33.4529 29.1673 35C29.1673 36.5471 29.7819 38.0308 30.8759 39.1248C31.9698 40.2188 33.4536 40.8333 35.0007 40.8333C36.5478 40.8333 38.0315 40.2188 39.1254 39.1248C40.2194 38.0308 40.834 36.5471 40.834 35C40.834 33.4529 40.2194 31.9692 39.1254 30.8752C38.0315 29.7813 36.5478 29.1667 35.0007 29.1667ZM43.7507 35C43.7507 33.4529 44.3652 31.9692 45.4592 30.8752C46.5532 29.7813 48.0369 29.1667 49.584 29.1667C51.1311 29.1667 52.6148 29.7813 53.7088 30.8752C54.8027 31.9692 55.4173 33.4529 55.4173 35C55.4173 36.5471 54.8027 38.0308 53.7088 39.1248C52.6148 40.2188 51.1311 40.8333 49.584 40.8333C48.0369 40.8333 46.5532 40.2188 45.4592 39.1248C44.3652 38.0308 43.7507 36.5471 43.7507 35ZM20.4173 29.1667C18.8702 29.1667 17.3865 29.7813 16.2925 30.8752C15.1986 31.9692 14.584 33.4529 14.584 35C14.584 36.5471 15.1986 38.0308 16.2925 39.1248C17.3865 40.2188 18.8702 40.8333 20.4173 40.8333C21.9644 40.8333 23.4481 40.2188 24.5421 39.1248C25.6361 38.0308 26.2507 36.5471 26.2507 35C26.2507 33.4529 25.6361 31.9692 24.5421 30.8752C23.4481 29.7813 21.9644 29.1667 20.4173 29.1667Z" fill="white"/>
</svg>
