<svg width="70" height="73" viewBox="0 0 70 73" fill="none" xmlns="http://www.w3.org/2000/svg">
<path d="M12.3264 42.6172L6.50365 39.9516C12.9217 25.1436 24.4303 13.299 38.8182 6.69354L41.4018 12.6863C28.453 18.6305 18.0956 29.2903 12.32 42.6172H12.3264ZM61.2182 65.1473L18.4355 45.5841C23.5696 33.739 32.7755 24.2643 44.2846 18.9803L46.7727 24.7438C45.6641 24.9292 44.6549 25.5121 43.9235 26.3895C43.1922 27.2668 42.7859 28.382 42.7764 29.538C42.7764 30.8535 43.2837 32.1152 44.1869 33.0461C45.0902 33.9769 46.3154 34.5007 47.5937 34.5024C48.6594 34.4806 49.6866 34.0881 50.5082 33.389L63.2991 63.0056C63.4296 63.3055 63.4686 63.6392 63.411 63.9624C63.3534 64.2857 63.2018 64.5834 62.9764 64.8161C62.7509 65.0488 62.4622 65.2057 62.1482 65.266C61.8343 65.3263 61.51 65.2872 61.2182 65.1538V65.1473ZM39.7855 42.5452C39.7855 41.5736 39.5056 40.6239 38.9811 39.8162C38.4567 39.0084 37.7113 38.3788 36.8392 38.007C35.9671 37.6352 35.0075 37.5379 34.0816 37.7275C33.1558 37.917 32.3054 38.3848 31.6379 39.0718C30.9704 39.7588 30.5159 40.634 30.3317 41.5869C30.1476 42.5397 30.2421 43.5274 30.6033 44.4249C30.9646 45.3225 31.5763 46.0896 32.3612 46.6294C33.146 47.1691 34.0688 47.4572 35.0127 47.4572C36.2785 47.4572 37.4925 46.9397 38.3876 46.0185C39.2826 45.0973 39.7855 43.8479 39.7855 42.5452ZM52.4109 49.1208C52.4109 48.1622 52.1347 47.2252 51.6173 46.4282C51.0999 45.6312 50.3644 45.01 49.5039 44.6431C48.6435 44.2763 47.6966 44.1803 46.7831 44.3673C45.8697 44.5543 45.0306 45.0159 44.372 45.6937C43.7134 46.3715 43.2649 47.2351 43.0832 48.1753C42.9015 49.1154 42.9948 50.0899 43.3512 50.9755C43.7076 51.8611 44.3112 52.618 45.0856 53.1506C45.86 53.6831 46.7705 53.9674 47.7018 53.9674C48.9508 53.9674 50.1485 53.4567 51.0317 52.5478C51.9148 51.6389 52.4109 50.4062 52.4109 49.1208Z" fill="white"/>
</svg>
