<svg width="70" height="73" viewBox="0 0 70 73" fill="none" xmlns="http://www.w3.org/2000/svg">
<path d="M26.25 9.00546C26.25 11.3939 27.1719 13.6844 28.8128 15.3733C30.4538 17.0621 32.6794 18.0109 35 18.0109C37.3206 18.0109 39.5462 17.0621 41.1872 15.3733C42.8281 13.6844 43.75 11.3939 43.75 9.00546H61.25C62.0235 9.00546 62.7654 9.32173 63.3124 9.88468C63.8594 10.4476 64.1667 11.2112 64.1667 12.0073V33.0201C64.1667 33.8162 63.8594 34.5797 63.3124 35.1427C62.7654 35.7056 62.0235 36.0219 61.25 36.0219H55.4138L55.4167 60.0365C55.4167 60.8326 55.1094 61.5961 54.5624 62.1591C54.0154 62.722 53.2735 63.0383 52.5 63.0383H17.5C16.7264 63.0383 15.9846 62.722 15.4376 62.1591C14.8906 61.5961 14.5833 60.8326 14.5833 60.0365L14.5804 36.0189L8.75 36.0219C7.97645 36.0219 7.23458 35.7056 6.6876 35.1427C6.14062 34.5797 5.83333 33.8162 5.83333 33.0201V12.0073C5.83333 11.2112 6.14062 10.4476 6.6876 9.88468C7.23458 9.32173 7.97645 9.00546 8.75 9.00546H26.25ZM58.3333 15.0061H48.3671L48.3175 15.1292C47.2114 17.6743 45.4386 19.8522 43.1978 21.4189C40.9569 22.9855 38.3365 23.8791 35.63 23.9996L35 24.0146C32.1837 24.0148 29.4275 23.176 27.0643 21.5992C24.7011 20.0225 22.8319 17.7754 21.6825 15.1292L21.63 15.0091H11.6667V30.0182L20.4137 30.0152V57.0347H49.5833L49.5804 30.0182L58.3333 30.0152V15.0061Z" fill="white"/>
</svg>
